<?xml version="1.0" standalone="no"?>
<!DOCTYPE svg PUBLIC "-//W3C//DTD SVG 20010904//EN"
 "http://www.w3.org/TR/2001/REC-SVG-20010904/DTD/svg10.dtd">
<svg version="1.0" xmlns="http://www.w3.org/2000/svg"
 width="500.000000pt" height="500.000000pt" viewBox="0 0 500.000000 500.000000"
 preserveAspectRatio="xMidYMid meet" style="background-color: transparent;">

<g transform="translate(0.000000,500.000000) scale(0.100000,-0.100000)"
fill="transparent"  stroke="none">
<path d="M0 2500 l0 -2500 2500 0 2500 0 0 2500 0 2500 -2500 0 -2500 0 0
-2500z m2502 2096 c11 -26 5 -56 -12 -56 -5 0 -10 8 -10 19 0 10 -7 24 -15 31
-13 11 -13 15 -3 21 21 14 28 11 40 -15z m48 -186 c0 -16 -4 -30 -10 -30 -5 0
-10 14 -10 30 0 17 5 30 10 30 6 0 10 -13 10 -30z m-87 -160 c-6 -66 5 -77 38
-37 15 18 18 19 19 5 0 -9 11 -30 25 -46 27 -32 45 -105 45 -181 0 -55 -7 -68
-40 -72 -33 -5 -38 -41 -12 -88 11 -20 23 -54 27 -76 l7 -40 16 40 16 39 17
-94 c10 -52 25 -129 34 -170 19 -86 15 -141 -16 -203 -40 -79 -82 -109 -155
-109 -130 0 -192 144 -129 297 28 68 31 99 10 135 -25 43 -15 131 10 90 10
-17 43 -11 50 9 3 10 7 42 8 70 2 47 -1 54 -30 77 -55 43 -67 124 -33 224 18
52 86 190 95 190 2 0 1 -27 -2 -60z m-453 -1345 l0 -165 170 0 170 0 0 -55 0
-55 -260 0 -260 0 0 220 0 220 90 0 90 0 0 -165z m580 -55 l0 -220 -90 0 -90
0 0 220 0 220 90 0 90 0 0 -220z m608 168 l-3 -53 -87 -3 -88 -3 0 -164 0
-165 -95 0 -95 0 0 165 0 165 -85 0 -85 0 0 55 0 55 271 0 270 0 -3 -52z
m-1807 -494 c59 -18 110 -63 127 -113 l11 -31 -103 0 c-73 0 -112 4 -132 15
-36 19 -55 19 -79 1 -18 -13 -16 -15 30 -20 210 -25 249 -39 272 -93 27 -67
-17 -146 -107 -186 -37 -17 -65 -21 -155 -21 -118 0 -173 16 -224 64 -20 19
-51 77 -51 95 0 3 46 5 103 5 74 -1 107 -5 121 -15 25 -19 80 -19 95 -1 9 11
-3 15 -71 20 -165 15 -229 42 -243 106 -7 34 21 105 54 134 59 53 239 73 352
40z m1174 1 c111 -29 165 -90 173 -196 8 -113 -33 -187 -125 -226 -59 -24
-176 -35 -259 -23 -148 20 -222 86 -232 205 -10 129 54 213 185 244 61 15 194
12 258 -4z m-475 -55 l0 -60 -85 0 -85 0 0 -165 0 -165 -100 0 -100 0 0 165 0
165 -85 0 -85 0 0 60 0 60 270 0 270 0 0 -60z m1232 33 c25 -12 54 -33 63 -47
38 -58 27 -161 -21 -193 l-25 -16 21 -22 c17 -18 49 -107 50 -137 0 -5 -42 -8
-94 -8 l-94 0 -17 51 c-21 61 -53 79 -145 79 l-60 0 0 -65 0 -65 -100 0 -100
0 0 226 0 226 238 -4 c217 -3 241 -5 284 -25z m658 -33 l0 -59 -157 -3 c-155
-3 -158 -3 -161 -25 -3 -23 -3 -23 132 -23 l136 0 0 -50 0 -49 -132 -3 c-129
-3 -133 -4 -136 -25 l-3 -23 170 0 171 0 0 -65 0 -65 -265 0 -265 0 0 225 0
225 255 0 255 0 0 -60z m-2768 -632 l22 -52 23 52 c12 29 27 52 33 52 6 0 10
-28 10 -65 0 -37 -4 -65 -10 -65 -5 0 -10 17 -10 38 l-1 37 -20 -37 c-11 -21
-22 -38 -24 -38 -2 0 -13 17 -24 38 l-20 37 -1 -37 c0 -21 -4 -38 -10 -38 -6
0 -10 28 -10 65 0 36 4 65 10 65 5 0 19 -23 32 -52z m366 25 c30 -40 2 -103
-47 -103 -48 0 -78 41 -62 84 18 47 79 57 109 19z m270 5 c17 -15 15 -68 -5
-90 -9 -10 -30 -18 -50 -18 l-33 0 0 66 0 66 38 -7 c20 -4 43 -11 50 -17z
m262 -45 c20 -53 19 -87 -1 -50 -12 21 -55 23 -63 2 -9 -25 -28 -18 -20 8 17
55 45 108 53 102 5 -3 19 -31 31 -62z m406 -21 c3 -17 11 -22 27 -20 18 2 23
10 25 48 5 67 22 75 22 9 0 -59 -11 -79 -46 -79 -35 0 -54 26 -54 74 0 52 14
71 18 24 1 -18 5 -43 8 -56z m308 78 c29 -11 34 -41 11 -60 -12 -10 -12 -15 2
-36 13 -20 13 -24 1 -24 -8 0 -20 11 -26 25 -6 14 -16 25 -22 25 -5 0 -10 -11
-10 -25 0 -14 -4 -25 -10 -25 -11 0 -14 113 -3 123 9 10 27 9 57 -3z m280 -10
c7 -7 7 -17 -2 -30 -7 -12 -8 -21 -2 -25 16 -10 12 -42 -6 -49 -9 -3 -29 -6
-45 -6 -29 0 -29 1 -29 58 0 32 3 62 7 66 10 9 64 -1 77 -14z m255 -41 c21
-57 21 -94 0 -56 -12 21 -55 23 -63 2 -3 -8 -10 -15 -15 -15 -9 0 -3 25 28
103 6 15 15 27 19 27 5 0 19 -27 31 -61z m253 -9 l17 -25 0 48 c1 29 5 46 11
42 6 -3 10 -33 10 -66 0 -72 -14 -77 -50 -16 l-25 42 -3 -42 c-5 -69 -22 -49
-22 25 l1 67 22 -25 c12 -14 30 -37 39 -50z m293 2 c16 -45 19 -62 10 -62 -7
0 -15 7 -19 15 -7 20 -43 19 -55 -2 -19 -35 -23 -3 -6 49 10 29 20 57 22 61
11 18 27 -2 48 -61z"/>
<path d="M1178 2519 c-89 -13 -144 -49 -167 -112 -16 -42 -14 -54 17 -87 21
-24 42 -34 97 -45 39 -8 90 -15 115 -15 88 -1 114 -22 68 -54 -28 -20 -78 -20
-104 -1 -13 10 -45 14 -106 15 -101 0 -108 -7 -55 -63 84 -90 333 -91 422 -2
64 65 55 139 -22 171 -19 9 -85 20 -145 27 -78 8 -112 16 -116 26 -14 36 93
57 134 26 13 -10 45 -14 102 -15 97 0 104 10 44 70 -54 54 -165 77 -284 59z"/>
<path d="M2364 2519 c-151 -19 -224 -89 -224 -216 0 -104 56 -170 170 -199 72
-18 206 -15 273 7 62 21 114 73 132 132 41 137 -44 256 -193 273 -26 3 -58 6
-72 8 -14 1 -52 -1 -86 -5z m147 -113 c43 -18 62 -102 34 -156 -46 -88 -204
-77 -235 16 -15 44 -2 100 30 129 34 31 111 36 171 11z"/>
<path d="M2380 2399 c-65 -26 -81 -110 -31 -160 25 -25 37 -29 81 -29 44 0 56
4 81 29 50 51 37 130 -26 157 -39 16 -69 17 -105 3z"/>
<path d="M1577 2514 c-4 -4 -7 -25 -7 -46 l0 -38 85 0 85 0 0 -165 0 -166 83
3 82 3 3 163 2 162 86 0 85 0 -3 43 -3 42 -246 3 c-135 1 -248 -1 -252 -4z"/>
<path d="M2820 2311 l0 -211 80 0 80 0 0 60 0 60 89 0 c104 0 134 -16 151 -81
l11 -39 78 0 78 0 -7 38 c-10 54 -25 78 -60 92 l-32 13 30 12 c73 31 98 133
46 194 -42 50 -101 62 -336 68 l-208 6 0 -212z m388 93 c12 -8 22 -23 22 -34
0 -33 -39 -47 -147 -54 l-103 -7 0 62 0 62 103 -7 c62 -4 111 -13 125 -22z"/>
<path d="M3000 2370 l0 -40 78 1 c103 1 127 9 127 39 0 30 -24 38 -127 39
l-78 1 0 -40z"/>
<path d="M3487 2514 c-4 -4 -7 -99 -7 -211 l0 -203 255 0 255 0 0 45 0 45
-170 0 -170 0 0 40 0 39 133 3 132 3 0 30 0 30 -132 3 -133 3 0 44 0 45 161 0
160 0 -3 43 -3 42 -236 3 c-129 1 -238 -1 -242 -4z"/>
<path d="M1501 1856 c-7 -8 -11 -27 -9 -43 6 -51 78 -40 78 13 0 36 -47 57
-69 30z"/>
<path d="M1780 1824 c0 -44 1 -45 28 -42 21 2 28 9 30 31 4 33 -13 57 -39 57
-16 0 -19 -8 -19 -46z"/>
<path d="M2066 1835 c-10 -26 -7 -35 9 -35 17 0 19 18 6 38 -7 11 -10 10 -15
-3z"/>
<path d="M2780 1851 c0 -16 6 -21 26 -21 33 0 30 33 -4 38 -17 3 -22 -2 -22
-17z"/>
<path d="M3040 1850 c0 -16 5 -21 23 -18 12 2 22 10 22 18 0 8 -10 16 -22 18
-18 3 -23 -2 -23 -18z"/>
<path d="M3040 1800 c0 -15 7 -20 25 -20 28 0 34 24 9 34 -26 10 -34 7 -34
-14z"/>
<path d="M3320 1841 c0 -5 -3 -16 -6 -25 -4 -11 0 -16 14 -16 15 0 19 5 15 20
-6 22 -23 38 -23 21z"/>
<path d="M3860 1841 c0 -5 -3 -16 -6 -25 -4 -12 0 -16 16 -16 16 0 20 4 16 16
-3 9 -6 20 -6 25 0 5 -4 9 -10 9 -5 0 -10 -4 -10 -9z"/>
</g>
</svg>
